<?xml version="1.0" encoding="UTF-8" standalone="no"?>
<svg width="128px" height="128px" viewBox="0 0 128 128" version="1.1" xmlns="http://www.w3.org/2000/svg" xmlns:xlink="http://www.w3.org/1999/xlink">
    <defs></defs>
    <g id="Page-1" stroke="none" stroke-width="1" fill="none" fill-rule="evenodd">
        <g id="Customify-icon">
            <g>
                <rect id="Rectangle-1" fill="#FF7D6F" x="0" y="0" width="128" height="128"></rect>
                <rect id="Rectangle-3" fill="#FFFFFF" x="23" y="37.9289714" width="70" height="70"></rect>
                <rect id="Rectangle-2" stroke="#3890F0" fill="#FFFFFF" x="37" y="23" width="70" height="70"></rect>
                <rect id="Rectangle-4" stroke="#3890F0" fill="#FFFFFF" x="33" y="19" width="8" height="8"></rect>
                <rect id="Rectangle-7" stroke="#3890F0" fill="#FFFFFF" x="33" y="89" width="8" height="8"></rect>
                <rect id="Rectangle-5" stroke="#3890F0" fill="#FFFFFF" x="103" y="20" width="8" height="8"></rect>
                <rect id="Rectangle-6" stroke="#3890F0" fill="#FFFFFF" x="103" y="89" width="8" height="8"></rect>
                <g id="triangle" transform="translate(47.000000, 35.000000)" fill="#FF7D6F">
                    <path d="M0.340909091,42.8302632 L12.6704545,21.5 L25,42.8302632 L0.340909091,42.8302632 L0.340909091,42.8302632 Z" id="Shape"></path>
                    <path d="M12.6704545,21.5 L25,0.169736842 L37.3295455,21.5 L12.6704545,21.5 L12.6704545,21.5 Z" id="Shape"></path>
                    <path d="M25,42.8302632 L37.3295455,21.5 L49.6590909,42.8302632 L25,42.8302632 L25,42.8302632 Z" id="Shape"></path>
                </g>
            </g>
        </g>
    </g>
</svg>